<?xml version="1.0" encoding="utf-8"?>
<svg xmlns="http://www.w3.org/2000/svg" width="1024" height="1024" viewBox="0 0 10240 10240">
  <!-- White Background Shape -->
  <path fill="#fff" d="M4811 10229c-1067-45-2039-399-2876-1048-846-656-1463-1577-1746-2606-88-318-145-647-168-960-35-481-17-1007 50-1415 230-1411 1046-2646 2256-3418 543-346 1197-599 1811-701 341-57 564-74 982-74s615 15 955 69c614 97 1289 357 1838 706 1204 768 2015 1990 2251 3393 94 560 96 1303 5 1865-121 746-418 1471-856 2087-659 930-1629 1615-2713 1917-422 118-730 166-1205 186-253 11-313 11-584-1z"/>
  <!-- Yellow Shape -->
  <path fill="#feba01" d="M5310 9434c0-3 24-31 54-62 230-240 398-551 460-852 69-338 34-743-95-1103-21-60-39-113-39-118s20-9 45-9c124 0 548-69 733-120 681-186 1295-526 1692-937 69-71 138-147 153-170l28-41-23-28c-279-332-505-497-778-568-202-52-395-57-680-16-505 71-699 46-917-119-211-160-329-394-402-796-11-60-32-188-46-284-31-202-51-274-100-356-104-174-247-237-383-169-124 62-212 221-251 454-11 69-30 186-42 260-44 282-84 429-154 573-56 113-118 199-197 272-220 204-430 241-948 168-353-49-607-35-832 47-217 79-442 252-628 483-74 93-76 83 38 213 275 313 793 657 1286 854 376 150 716 234 1099 271l128 13-6 41c-12 70-75 247-116 325-184 343-596 612-1139 743-229 56-429 79-682 80l-177 0-88-74c-133-112-374-350-486-479-118-136-263-329-374-495-474-710-727-1588-700-2420 17-513 100-956 257-1379 171-462 349-782 652-1170 12-16 19-61 28-196 31-474 137-793 322-966 64-61 115-88 201-110 153-40 380 18 595 152l73 46 72-37c40-21 77-41 82-45 20-16 324-153 440-200 776-310 1660-394 2487-235 464 90 969 271 1339 481l66 38 64-41c143-90 257-137 408-168 104-21 188-10 280 37 77 39 180 139 230 223 76 126 146 338 176 535 18 119 35 297 35 367s3 56 83 160c428 552 732 1287 832 2017 43 312 46 869 6 1165-147 1083-726 2083-1626 2806-671 539-1424 838-2330 925-60 5-131 13-157 15-27 3-48 3-48-1zm-1307-4778c67-28 116-119 103-190-8-41-55-100-97-122-44-22-116-18-165 11-44 26-84 90-84 136 0 127 128 214 243 165zm2466-6c103-52 128-173 55-260-36-42-74-60-129-60-61 0-111 25-141 69-47 72-44 148 9 208 56 64 134 80 206 43zm-3929-828c0-13 155-198 245-291 190-199 459-390 717-511l46-21-50-82c-288-468-618-887-795-1008-100-69-224-89-302-50-200 102-245 480-135 1128 23 142 67 332 100 438 28 90 157 405 166 405 4 0 8-4 8-8zm5237-150c85-216 129-368 173-592 16-85 25-137 45-263 36-230 43-417 20-578-38-274-130-399-292-399-147 0-320 144-571 475-153 201-452 653-452 681s51 34 112 64c321 158 577 369 815 671 43 54 80 99 83 99s33-71 67-158z"/>
  <!-- Blue Shape (Darker) -->
  <path fill="#4314d6" d="M5310 9434c0-3 24-31 54-62 230-240 398-551 460-852 69-338 34-743-95-1103-21-60-39-113-39-118s20-9 45-9c124 0 548-69 733-120 681-186 1294-525 1692-936 69-72 139-150 156-176 30-45 30-47 22-129-28-308-119-653-258-978-66-155-69-175-33-260 71-168 252-772 338-1126 63-262 71-298 86-382 5-29 14-79 19-110 34-193 59-425 63-578l2-90 81 105c429 556 729 1285 829 2014 43 312 46 869 6 1165-147 1083-726 2083-1626 2806-671 539-1424 838-2330 925-60 5-131 13-157 15-27 3-48 3-48-1z"/>
  <!-- Blue Shape (Combined) -->
  <path fill="#3812b3" d="M2456 8483l-70-4-85-72c-131-110-373-349-484-477-118-136-263-329-374-495-597-895-823-1986-637-3070 88-514 270-1008 534-1448 117-197 315-475 328-462 3 2 6 30 8 62 20 373 58 620 155 1008 80 318 142 528 279 937 55 164 100 309 100 322s-12 55-26 92c-57 151-167 475-194 574-51 188-90 420-90 537s2 55 78 145c270 320 800 676 1306 878 376 150 716 234 1099 271l128 13-6 41c-12 70-75 247-116 325-206 384-707 678-1334 784-171 29-454 47-599 39zM6070 2799c-121-31-354-77-510-101-125-19-187-22-445-22-378-1-559 19-860 96-180 46-169 46-195 1-302-505-764-1057-1100-1313-44-34-78-65-75-70 15-24 374-197 580-280 378-151 803-254 1195-291 741-70 1455 32 2140 304 219 87 556 257 548 277-2 4-39 36-83 70-114 89-461 441-586 595-210 258-358 465-478 668-29 48-53 87-54 86s-36-9-77-20z"/>
  <!-- Blue Shape (Lighter, Combined) -->
  <path fill="#0049e3" d="M4590 6529c-79-15-203-84-268-149-63-62-135-186-147-252-6-31-3-41 19-62 25-26 50-32 80-20 9 4 34 43 56 88 43 92 111 167 187 208 179 96 391 27 472-155 49-109 49-108-22-136-130-50-221-131-287-252-32-58-35-72-35-144s4-86 27-126c52-89 156-115 453-113 215 1 339 18 385 52 48 36 75 100 75 177s-3 76-43 142c-79 134-222 263-309 279-31 6-34 9-28 33 13 52 65 148 100 184 46 47 114 82 191 97 164 32 359-82 420-247 22-62 51-93 84-93 34 0 70 38 70 75 0 42-72 183-125 242-129 146-329 211-509 164-123-32-205-87-280-185-21-28-40-51-41-51-2 0-22 25-44 57-105 145-301 222-481 187zM3715 5114c-118-19-235-82-325-174-311-318-170-848 260-981 96-30 247-32 330-5 194 65 349 223 401 411 9 31 14 96 13 170-1 134-19 201-85 311-63 105-200 210-326 250-49 15-214 26-268 18zm288-458c67-28 116-119 103-190-8-41-55-100-97-122-44-22-116-18-165 11-44 26-84 90-84 136 0 127 128 214 243 165zM6335 5114c-90-22-117-31-166-55-144-71-243-190-298-358-27-82-29-250-5-332 47-158 159-298 292-367 105-53 160-67 272-67 203 1 389 104 501 278 65 101 84 173 83 317s-3 133-27 193c-67 172-195 300-362 362-53 20-93 27-170 30-55 2-109 2-120-1zm134-464c103-52 128-173 55-260-36-42-74-60-129-60-61 0-111 25-141 69-47 72-44 148 9 208 56 64 134 80 206 43z"/>
</svg>